<?xml version="1.0" encoding="UTF-8"?>
<!DOCTYPE svg PUBLIC "-//W3C//DTD SVG 1.0//EN" "http://www.w3.org/TR/2001/REC-SVG-20010904/DTD/svg10.dtd">
<!-- Creator: CorelDRAW X8 -->
<svg xmlns="http://www.w3.org/2000/svg" xml:space="preserve" width="120mm" height="29mm" version="1.0" style="shape-rendering:geometricPrecision; text-rendering:geometricPrecision; image-rendering:optimizeQuality; fill-rule:evenodd; clip-rule:evenodd"
viewBox="0 0 12000 2900"
 xmlns:xlink="http://www.w3.org/1999/xlink">
 <defs>
  <style type="text/css">
   <![CDATA[
    .fil0 {fill:#E22822;fill-rule:nonzero}
   ]]>
  </style>
 </defs>
 <g id="Camada_x0020_1">
  <metadata id="CorelCorpID_0Corel-Layer"/>
  <g id="_2637105982704">
   <path class="fil0" d="M11612 2793l388 107 0 -2900 -388 0 0 2793z"/>
   <path class="fil0" d="M9982 0l0 1929c0,407 198,640 578,640 381,0 579,-233 579,-640l0 -1929 -367 0 0 1955c0,181 -78,247 -201,247 -123,0 -201,-66 -201,-247l0 -1955 -388 0z"/>
   <path class="fil0" d="M8363 1711c0,407 208,640 589,640 102,0 208,-104 285,-133 67,80 160,181 374,208l0 -304 -35 0c-64,0 -92,-7 -110,-55 50,-94 74,-214 74,-356l0 -1064c0,-408 -208,-640 -588,-640 -381,0 -589,233 -589,640l0 1064zm388 -1126c0,-182 77,-251 201,-251 123,0 200,69 200,251l0 1116c0,181 -77,250 -200,250 -124,0 -201,-69 -201,-250l0 -1116z"/>
   <path class="fil0" d="M7518 2245l385 21 0 -2266 -388 0 3 2245z"/>
   <path class="fil0" d="M6113 2210l1026 15 -2 -365 -638 0 0 -1860 -388 0 2 2210z"/>
   <path class="fil0" d="M5077 363l638 0 0 -363 -1026 0 0 2228 388 -10 0 -863 501 0 0 -363 -501 0 0 -629z"/>
   <path class="fil0" d="M3112 363l405 0 0 1944 388 -29 0 -1915 406 0 0 -363 -1199 0 0 363z"/>
   <path class="fil0" d="M2106 363l670 0 0 -363 -1058 0 0 2523 1058 -143 0 -407 -670 0 0 -676 532 0 0 -363 -532 0 0 -571z"/>
   <path class="fil0" d="M872 2680l365 -72 -7 -2608 -345 0 0 1443 -398 -1443 -487 0 6 2894 349 -94 -6 -1756 523 1636z"/>
  </g>
 </g>
</svg>
