<svg xmlns="http://www.w3.org/2000/svg" width="473.1" height="473.1" viewBox="0 0 473.1 473.1"><g><g><g><path d="M355.5 182a62.2 62.2 0 0 0 29.4-55.4V54.8h9.8c4.5 0 8.2-3.6 8.2-8.1V8.2c0-4.5-3.7-8.2-8.2-8.2H78.3a8.2 8.2 0 0 0-8.1 8.2v38.5c0 4.5 3.7 8.1 8.1 8.1h9.9V128c0 34.5 10.5 42.6 29 53.9L198 231v21a4277.8 4277.8 0 0 0-80.4 49 62.2 62.2 0 0 0-29.4 55.4v61.8h-9.9a8.2 8.2 0 0 0-8.1 8.2v38.5c0 4.5 3.7 8.2 8.1 8.2h316.4c4.5 0 8.2-3.7 8.2-8.2v-38.5c0-4.5-3.7-8.2-8.2-8.2H385v-63c0-34.6-10.5-42.6-29-54L275 252v-21a4235 4235 0 0 0 80.4-49zm-102.8 90.9l87.8 53.5c6.8 4 10.4 6.3 12 9 2 3.1 3 9.6 3 19.7v63.1h-238v-61.8c0-19.5 9.8-26.2 16.9-31.2 5.5-3.9 54.4-33.4 85.9-52.3 4.4-2.6 7-7.4 7-12.6v-37.6c0-5-2.6-9.8-7-12.5l-87.8-53.5c-6.7-4.1-10.3-6.4-12-9-2-3.2-3-9.7-3-19.8V55h238v71.7c0 19.5-9.7 26.3-16.8 31.2-5.6 4-54.4 33.4-85.9 52.3a14.7 14.7 0 0 0-7.1 12.6v37.6c0 5.1 2.6 9.9 7 12.6z"/><path d="M131.6 359.6c-2 1.5-3.1 2.5-3.1 6v38c0 .1-.4 3.8 3.7 3.8l104 .1 103.9-.1c4.1 0 3.7-3.7 3.7-3.7v-38c0-3.6-1-4.6-3-6-14.2-10.7-77-60.2-104.7-60.2-27.6 0-90.4 49.5-104.5 60.1z"/></g></g></g></svg>