<svg xmlns="http://www.w3.org/2000/svg" viewBox="0 0 490.7 490.7"><path fill="#FFC107" d="M53.3 138.7h384a53.3 53.3 0 0 1 53.4 53.3v106.7a53.3 53.3 0 0 1-53.4 53.3h-384A53.3 53.3 0 0 1 0 298.7V192a53.3 53.3 0 0 1 53.3-53.3z"/><path d="M96 309.3c-5.9 0-10.7-4.7-10.7-10.6V192a10.7 10.7 0 0 1 21.4 0v106.7c0 5.9-4.8 10.6-10.7 10.6z"/><path d="M224 309.3c-5.9 0-10.7-4.7-10.7-10.6v-96h-1.9l-19.6 98.1a10.7 10.7 0 0 1-21 0l-19.5-98.1h-2v96a10.7 10.7 0 0 1-21.3 0V192c0-5.9 4.8-10.7 10.7-10.7H160c5 0 9.4 3.6 10.5 8.6l10.8 54.4 11-54.4c1-5 5.3-8.6 10.4-8.6H224c5.9 0 10.7 4.8 10.7 10.7v106.7c0 5.9-4.8 10.6-10.7 10.6z"/><path d="M288 309.3h-21.3c-6 0-10.7-4.7-10.7-10.6V192c0-5.9 4.8-10.7 10.7-10.7H288a32 32 0 0 1 32 32v64a32 32 0 0 1-32 32zM277.3 288H288c5.9 0 10.7-4.8 10.7-10.7v-64c0-5.9-4.8-10.6-10.7-10.6h-10.7V288z"/><path d="M352 309.3c-5.9 0-10.7-4.7-10.7-10.6V192a10.7 10.7 0 0 1 21.4 0v106.7c0 5.9-4.8 10.6-10.7 10.6z"/><path d="M373.3 309.3a32 32 0 0 1-32-32v-42.6a32 32 0 0 1 64 0v42.6a32 32 0 0 1-32 32zm0-85.3c-5.9 0-10.6 4.8-10.6 10.7v42.6a10.7 10.7 0 1 0 21.3 0v-42.6c0-6-4.8-10.7-10.7-10.7z"/></svg>