<svg xmlns="http://www.w3.org/2000/svg" width="170mm" height="170mm" viewBox="0 0 17000 17000" shape-rendering="geometricPrecision" text-rendering="geometricPrecision" image-rendering="optimizeQuality" fill-rule="evenodd" clip-rule="evenodd"><path d="M10522 3195l-751-314c-340-142-520-481-430-807l230-835c82-294 4-608-193-836C9159 148 8838 0 8500 0s-659 148-878 403c-144 166-224 378-224 598 0 80 11 160 31 238l230 835c90 326-90 665-430 807l-751 314c-246 106-398 342-369 587l291 2719 533 89-135 2148c-3 56-5 113-5 170 0 503 139 998 403 1428l176 293-213 987c-82 383-70 774 32 1153l423 1549a773.2 773.2 0 0 1-127 660l-451 612h2928l-451-612a769.8 769.8 0 0 1-131-664l426-1545c103-379 115-774 33-1153l-217-987 180-293c264-430 403-925 403-1428 0-57-2-114-5-170l-139-2148 533-90 299-2718c25-245-123-481-373-587z" fill="#f7b239"/><path d="M8500 4c-131 0-267 130-361 399-65 190-99 390-99 591 0 82 6 164 17 245l94 835c41 326-36 665-176 807l-308 314c-106 106-164 342-155 587l123 1883h336l-172 3073c-17 555 41 1109 164 1598l74 293-91 987c-33 383-28 774 13 1153l176 1549a1726.2 1726.2 0 0 1-53 660l-185 612h-861l451-612a768.3 768.3 0 0 0 127-664l-422-1545c-103-379-115-774-33-1153l213-987-176-293c-264-430-403-925-403-1428 0-57 2-114 5-170l139-2148-533-90-299-2718c-25-245 123-481 373-587l751-314c340-143 516-481 430-807l-229-835a918.8 918.8 0 0 1 192-836C7841 150 8161 4 8497 4h3z" fill="#e09b2d"/><path d="M10875 15545v1455H6125v-1455h4750z" fill="gray"/></svg>