<svg xmlns="http://www.w3.org/2000/svg" viewBox="0 0 512 512" width="16px" height="16px"><path d="M477.6 128A254.2 254.2 0 0 0 322.2 8.9c-66-17.7-135-8.6-194.1 25.6A254.2 254.2 0 0 0 8.8 189.8c-17.7 66-8.6 135 25.6 194.1a257.3 257.3 0 0 0 222 128c44.4.1 88.1-11.5 127.5-34.3a254.2 254.2 0 0 0 119.3-155.4c17.7-66 8.6-135-25.6-194.1zm-.2 187.3a227.7 227.7 0 0 1-106.8 139.2 227.7 227.7 0 0 1-174 23A227.7 227.7 0 0 1 57.6 370.5a227.7 227.7 0 0 1-23-174A227.7 227.7 0 0 1 141.5 57.6a227.9 227.9 0 0 1 174-23 227.7 227.7 0 0 1 139.1 106.9 227.7 227.7 0 0 1 23 174z"/><path d="M378.8 231.9l-164.5-95c-8.8-5-19.2-5-28 0-8.7 5-13.9 14-13.9 24.1v190c0 10 5.2 19.1 14 24.1a27.8 27.8 0 0 0 27.9 0l164.5-95c8.7-5 14-14 14-24.1 0-10-5.3-19.1-14-24.1zM365.5 257l-164.6 95c-.2 0-.6.3-1.2 0-.6-.4-.6-.9-.6-1.1V161c0-.2 0-.7.6-1 .2-.2.4-.2.6-.2l.6.1 164.6 95c.2.1.6.4.6 1.1 0 .7-.4 1-.6 1z"/></svg>