<svg xmlns="http://www.w3.org/2000/svg" viewBox="0 0 490.7 490.7"><g><path d="M453.4 160.2l-119.7-8.6a6.4 6.4 0 0 1-5.6-4l-45.6-111c-6.3-15.4-20.5-24.9-37-24.9s-30.8 9.5-37.2 25l-45.7 111a6.7 6.7 0 0 1-5.6 4.1l-119.5 8.6c-16.2 1-30 11.5-35.3 27.1a39.2 39.2 0 0 0 12 43.3l92.4 76.4a6.6 6.6 0 0 1 2.2 6.6L80.6 429.2a39 39 0 0 0 59 43.4l101-62.9a6.6 6.6 0 0 1 7 0l102 62.7a38.2 38.2 0 0 0 51.6-8.2 40.5 40.5 0 0 0 7.7-34.6L380.6 314c-.6-2.5.3-5 2.2-6.7l94-76.6a39.5 39.5 0 0 0 11.7-43.2 39.5 39.5 0 0 0-35-27.2zm7.7 51.5l-93.7 76.5a31.2 31.2 0 0 0-10.5 31.5l28.3 115.5a15.8 15.8 0 0 1-3 13.7c-2.8 3.5-7 5.7-11.2 5.7a14 14 0 0 1-8-2.7l-102.5-63a31.1 31.1 0 0 0-32.7.1l-101.5 63.1a14.9 14.9 0 0 1-19.8-3.6 14.2 14.2 0 0 1-2-13l28.2-115.9a31.2 31.2 0 0 0-10.4-31.3L30 212c-7.3-6.3-5.3-14.4-4.5-16.7s4.1-10 13.7-10.5l119.7-8.6a31 31 0 0 0 26.5-19.2l45.7-111c3.7-9 12-9.8 14.4-9.8 2.4 0 10.7.7 14.4 9.7L305.6 157a31 31 0 0 0 26.5 19.2l120 8.7a15 15 0 0 1 13.4 10.5c.6 2.1 2.6 10.2-4.4 16.3z"/></g></svg>